<svg xmlns="http://www.w3.org/2000/svg" viewBox="0 0 121.07 106.44"><defs><style>.cls-1{fill:gray;}.cls-2{fill:#93c21a;}</style></defs><title>Asset 7</title><g id="Layer_2" data-name="Layer 2"><g id="Layer_1-2" data-name="Layer 1"><path class="cls-1" d="M54,81.11a27.5,27.5,0,0,1-12.26-2.75c-5.7-2.84-9.49-8.18-11-15.45a41.74,41.74,0,0,1,.48-17c2.39-10.33,9.31-18.11,18-20.32A22.33,22.33,0,0,1,64,27C70.44,30,73.42,37,71.41,44.29c-1.42,5.13-5.18,9.5-10.6,12.28a40.21,40.21,0,0,1-14,3.91c-1.65.19-3.35.31-5.13.38.67,3.29,2.16,6.19,5,7.61,5.81,2.9,14.19,1.79,20.37-2.68l6.48,9A33.65,33.65,0,0,1,54,81.11ZM54.7,36a11.08,11.08,0,0,0-2.69.32c-5.62,1.42-8.84,7.18-10,12.1-.1.43-.2.9-.29,1.4,1.32-.06,2.58-.16,3.8-.3a29.52,29.52,0,0,0,10.23-2.75c1.53-.79,4.21-2.53,5-5.39.27-1,.66-3.38-1.55-4.44A10.67,10.67,0,0,0,54.7,36Z"/><path class="cls-2" d="M106.22,48.42H92.58a39.25,39.25,0,0,1,.29,4.8,39.68,39.68,0,1,1-19-33.86V11h11.8a53.2,53.2,0,1,0,20.81,42.18C106.44,51.61,106.37,50,106.22,48.42Z"/><polygon class="cls-1" points="121.07 15.46 121.07 29.73 106.8 29.73 106.8 44.01 92.52 44.01 92.52 29.73 78.24 29.73 78.24 15.46 92.52 15.46 92.52 1.18 106.8 1.18 106.8 15.46 121.07 15.46"/></g></g></svg>